<mxfile host="Electron" modified="2024-09-19T11:37:01.385Z" agent="Mozilla/5.0 (Windows NT 10.0; Win64; x64) AppleWebKit/537.36 (KHTML, like Gecko) draw.io/24.2.5 Chrome/120.0.6099.109 Electron/28.1.0 Safari/537.36" etag="WCoIASAz6yuhkmpZSvfq" version="24.2.5" type="device">
  <diagram name="Page-1" id="JMkK7bd3fJ11POz3t-93">
    <mxGraphModel dx="1050" dy="669" grid="1" gridSize="10" guides="1" tooltips="1" connect="1" arrows="1" fold="1" page="1" pageScale="1" pageWidth="1169" pageHeight="1654" math="0" shadow="0">
      <root>
        <mxCell id="0" />
        <mxCell id="1" parent="0" />
        <mxCell id="4Uo7AbZbIMrUiZoJ8Cxp-1" value="Be: a,b" style="rounded=0;whiteSpace=wrap;html=1;" parent="1" vertex="1">
          <mxGeometry width="120" height="40" as="geometry" />
        </mxCell>
        <mxCell id="4Uo7AbZbIMrUiZoJ8Cxp-2" value="c:=sqrt(a**2+b**2)" style="rounded=0;whiteSpace=wrap;html=1;" parent="1" vertex="1">
          <mxGeometry y="40" width="120" height="40" as="geometry" />
        </mxCell>
        <mxCell id="4Uo7AbZbIMrUiZoJ8Cxp-4" value="Ki: c" style="rounded=0;whiteSpace=wrap;html=1;" parent="1" vertex="1">
          <mxGeometry y="80" width="120" height="40" as="geometry" />
        </mxCell>
        <mxCell id="4Uo7AbZbIMrUiZoJ8Cxp-8" style="edgeStyle=orthogonalEdgeStyle;rounded=0;orthogonalLoop=1;jettySize=auto;html=1;exitX=0.5;exitY=1;exitDx=0;exitDy=0;entryX=0.5;entryY=0;entryDx=0;entryDy=0;" parent="1" source="4Uo7AbZbIMrUiZoJ8Cxp-6" target="4Uo7AbZbIMrUiZoJ8Cxp-7" edge="1">
          <mxGeometry relative="1" as="geometry" />
        </mxCell>
        <mxCell id="4Uo7AbZbIMrUiZoJ8Cxp-6" value="Start" style="ellipse;whiteSpace=wrap;html=1;" parent="1" vertex="1">
          <mxGeometry x="120" width="120" height="40" as="geometry" />
        </mxCell>
        <mxCell id="4Uo7AbZbIMrUiZoJ8Cxp-11" style="edgeStyle=orthogonalEdgeStyle;rounded=0;orthogonalLoop=1;jettySize=auto;html=1;entryX=0.5;entryY=0;entryDx=0;entryDy=0;" parent="1" source="4Uo7AbZbIMrUiZoJ8Cxp-7" target="4Uo7AbZbIMrUiZoJ8Cxp-10" edge="1">
          <mxGeometry relative="1" as="geometry" />
        </mxCell>
        <mxCell id="4Uo7AbZbIMrUiZoJ8Cxp-7" value="Be: a,b" style="shape=parallelogram;perimeter=parallelogramPerimeter;whiteSpace=wrap;html=1;fixedSize=1;" parent="1" vertex="1">
          <mxGeometry x="120" y="80" width="120" height="40" as="geometry" />
        </mxCell>
        <mxCell id="4Uo7AbZbIMrUiZoJ8Cxp-14" style="edgeStyle=orthogonalEdgeStyle;rounded=0;orthogonalLoop=1;jettySize=auto;html=1;entryX=0.5;entryY=0;entryDx=0;entryDy=0;" parent="1" source="4Uo7AbZbIMrUiZoJ8Cxp-9" target="4Uo7AbZbIMrUiZoJ8Cxp-13" edge="1">
          <mxGeometry relative="1" as="geometry" />
        </mxCell>
        <mxCell id="4Uo7AbZbIMrUiZoJ8Cxp-9" value="Ki: c" style="shape=parallelogram;perimeter=parallelogramPerimeter;whiteSpace=wrap;html=1;fixedSize=1;" parent="1" vertex="1">
          <mxGeometry x="120" y="240" width="120" height="40" as="geometry" />
        </mxCell>
        <mxCell id="4Uo7AbZbIMrUiZoJ8Cxp-12" style="edgeStyle=orthogonalEdgeStyle;rounded=0;orthogonalLoop=1;jettySize=auto;html=1;entryX=0.5;entryY=0;entryDx=0;entryDy=0;" parent="1" source="4Uo7AbZbIMrUiZoJ8Cxp-10" target="4Uo7AbZbIMrUiZoJ8Cxp-9" edge="1">
          <mxGeometry relative="1" as="geometry" />
        </mxCell>
        <mxCell id="4Uo7AbZbIMrUiZoJ8Cxp-10" value="c := sqrt(a**2+b**2)" style="rounded=0;whiteSpace=wrap;html=1;" parent="1" vertex="1">
          <mxGeometry x="120" y="160" width="120" height="40" as="geometry" />
        </mxCell>
        <mxCell id="4Uo7AbZbIMrUiZoJ8Cxp-13" value="Stop" style="ellipse;whiteSpace=wrap;html=1;" parent="1" vertex="1">
          <mxGeometry x="120" y="320" width="120" height="40" as="geometry" />
        </mxCell>
        <mxCell id="4Uo7AbZbIMrUiZoJ8Cxp-16" value="Eljárás TeglalapAtlo&lt;div&gt;Be: a,b&lt;/div&gt;&lt;div&gt;c := sqrt(a**2+b**2)&lt;/div&gt;&lt;div&gt;Ki: c&lt;/div&gt;&lt;div&gt;Eljárás vége&lt;/div&gt;" style="text;html=1;align=left;verticalAlign=top;whiteSpace=wrap;rounded=0;" parent="1" vertex="1">
          <mxGeometry y="120" width="120" height="200" as="geometry" />
        </mxCell>
        <mxCell id="4Uo7AbZbIMrUiZoJ8Cxp-17" value="Be: a,b" style="rounded=0;whiteSpace=wrap;html=1;" parent="1" vertex="1">
          <mxGeometry x="280" width="200" height="40" as="geometry" />
        </mxCell>
        <mxCell id="4Uo7AbZbIMrUiZoJ8Cxp-18" value="a &amp;lt; b" style="rounded=0;whiteSpace=wrap;html=1;" parent="1" vertex="1">
          <mxGeometry x="280" y="40" width="200" height="40" as="geometry" />
        </mxCell>
        <mxCell id="4Uo7AbZbIMrUiZoJ8Cxp-19" value="kul := b-a" style="rounded=0;whiteSpace=wrap;html=1;" parent="1" vertex="1">
          <mxGeometry x="280" y="80" width="100" height="40" as="geometry" />
        </mxCell>
        <mxCell id="4Uo7AbZbIMrUiZoJ8Cxp-20" value="kul := a-b" style="rounded=0;whiteSpace=wrap;html=1;" parent="1" vertex="1">
          <mxGeometry x="380" y="80" width="100" height="40" as="geometry" />
        </mxCell>
        <mxCell id="4Uo7AbZbIMrUiZoJ8Cxp-34" value="Ki: |kul|" style="rounded=0;whiteSpace=wrap;html=1;" parent="1" vertex="1">
          <mxGeometry x="280" y="120" width="200" height="40" as="geometry" />
        </mxCell>
        <mxCell id="4Uo7AbZbIMrUiZoJ8Cxp-35" value="Eljárás AbsKul&lt;div&gt;&lt;span style=&quot;background-color: initial;&quot;&gt;Be: a,b&lt;/span&gt;&lt;/div&gt;&lt;div&gt;&lt;span style=&quot;background-color: initial;&quot;&gt;Ha a&amp;lt;b:&lt;/span&gt;&lt;/div&gt;&lt;div&gt;&lt;span style=&quot;background-color: initial;&quot;&gt;&lt;span style=&quot;white-space: pre;&quot;&gt;&#x9;&lt;/span&gt;kul:=b-a&lt;br&gt;&lt;/span&gt;&lt;/div&gt;&lt;div&gt;&lt;span style=&quot;background-color: initial;&quot;&gt;Különben:&lt;/span&gt;&lt;/div&gt;&lt;div&gt;&lt;span style=&quot;background-color: initial;&quot;&gt;&lt;span style=&quot;white-space: pre;&quot;&gt;&#x9;&lt;/span&gt;kul:=a-b&lt;br&gt;&lt;/span&gt;&lt;/div&gt;&lt;div&gt;&lt;span style=&quot;background-color: initial;&quot;&gt;Ki: |kul|&lt;/span&gt;&lt;/div&gt;&lt;div&gt;&lt;span style=&quot;background-color: initial;&quot;&gt;Eljárás vége&lt;/span&gt;&lt;br&gt;&lt;/div&gt;" style="text;html=1;align=left;verticalAlign=top;whiteSpace=wrap;rounded=0;" parent="1" vertex="1">
          <mxGeometry x="280" y="160" width="200" height="240" as="geometry" />
        </mxCell>
        <mxCell id="4Uo7AbZbIMrUiZoJ8Cxp-38" value="" style="edgeStyle=orthogonalEdgeStyle;rounded=0;orthogonalLoop=1;jettySize=auto;html=1;" parent="1" source="4Uo7AbZbIMrUiZoJ8Cxp-36" target="4Uo7AbZbIMrUiZoJ8Cxp-37" edge="1">
          <mxGeometry relative="1" as="geometry" />
        </mxCell>
        <mxCell id="4Uo7AbZbIMrUiZoJ8Cxp-36" value="Start" style="ellipse;whiteSpace=wrap;html=1;" parent="1" vertex="1">
          <mxGeometry x="480" width="120" height="40" as="geometry" />
        </mxCell>
        <mxCell id="4Uo7AbZbIMrUiZoJ8Cxp-40" value="" style="edgeStyle=orthogonalEdgeStyle;rounded=0;orthogonalLoop=1;jettySize=auto;html=1;" parent="1" source="4Uo7AbZbIMrUiZoJ8Cxp-37" target="4Uo7AbZbIMrUiZoJ8Cxp-39" edge="1">
          <mxGeometry relative="1" as="geometry" />
        </mxCell>
        <mxCell id="4Uo7AbZbIMrUiZoJ8Cxp-37" value="Be: a,b" style="shape=parallelogram;perimeter=parallelogramPerimeter;whiteSpace=wrap;html=1;fixedSize=1;" parent="1" vertex="1">
          <mxGeometry x="480" y="80" width="120" height="40" as="geometry" />
        </mxCell>
        <mxCell id="4Uo7AbZbIMrUiZoJ8Cxp-43" value="I" style="edgeStyle=orthogonalEdgeStyle;rounded=0;orthogonalLoop=1;jettySize=auto;html=1;exitX=0.5;exitY=1;exitDx=0;exitDy=0;entryX=0.5;entryY=0;entryDx=0;entryDy=0;" parent="1" source="4Uo7AbZbIMrUiZoJ8Cxp-39" target="4Uo7AbZbIMrUiZoJ8Cxp-41" edge="1">
          <mxGeometry relative="1" as="geometry" />
        </mxCell>
        <mxCell id="4Uo7AbZbIMrUiZoJ8Cxp-44" value="H" style="edgeStyle=orthogonalEdgeStyle;rounded=0;orthogonalLoop=1;jettySize=auto;html=1;exitX=1;exitY=0.5;exitDx=0;exitDy=0;entryX=0.5;entryY=0;entryDx=0;entryDy=0;" parent="1" source="4Uo7AbZbIMrUiZoJ8Cxp-39" target="4Uo7AbZbIMrUiZoJ8Cxp-42" edge="1">
          <mxGeometry relative="1" as="geometry" />
        </mxCell>
        <mxCell id="4Uo7AbZbIMrUiZoJ8Cxp-39" value="a &amp;lt; b" style="rhombus;whiteSpace=wrap;html=1;" parent="1" vertex="1">
          <mxGeometry x="500" y="160" width="80" height="80" as="geometry" />
        </mxCell>
        <mxCell id="4Uo7AbZbIMrUiZoJ8Cxp-46" value="" style="edgeStyle=orthogonalEdgeStyle;rounded=0;orthogonalLoop=1;jettySize=auto;html=1;" parent="1" source="4Uo7AbZbIMrUiZoJ8Cxp-41" target="4Uo7AbZbIMrUiZoJ8Cxp-45" edge="1">
          <mxGeometry relative="1" as="geometry" />
        </mxCell>
        <mxCell id="4Uo7AbZbIMrUiZoJ8Cxp-41" value="kul := b-a" style="rounded=0;whiteSpace=wrap;html=1;" parent="1" vertex="1">
          <mxGeometry x="480" y="280" width="120" height="40" as="geometry" />
        </mxCell>
        <mxCell id="4Uo7AbZbIMrUiZoJ8Cxp-47" style="edgeStyle=orthogonalEdgeStyle;rounded=0;orthogonalLoop=1;jettySize=auto;html=1;entryX=1;entryY=0.5;entryDx=0;entryDy=0;" parent="1" source="4Uo7AbZbIMrUiZoJ8Cxp-42" target="4Uo7AbZbIMrUiZoJ8Cxp-45" edge="1">
          <mxGeometry relative="1" as="geometry">
            <Array as="points">
              <mxPoint x="700" y="380" />
            </Array>
          </mxGeometry>
        </mxCell>
        <mxCell id="4Uo7AbZbIMrUiZoJ8Cxp-42" value="kul:=a-b" style="rounded=0;whiteSpace=wrap;html=1;" parent="1" vertex="1">
          <mxGeometry x="640" y="240" width="120" height="40" as="geometry" />
        </mxCell>
        <mxCell id="4Uo7AbZbIMrUiZoJ8Cxp-49" style="edgeStyle=orthogonalEdgeStyle;rounded=0;orthogonalLoop=1;jettySize=auto;html=1;entryX=0.5;entryY=0;entryDx=0;entryDy=0;" parent="1" source="4Uo7AbZbIMrUiZoJ8Cxp-45" target="4Uo7AbZbIMrUiZoJ8Cxp-48" edge="1">
          <mxGeometry relative="1" as="geometry" />
        </mxCell>
        <mxCell id="4Uo7AbZbIMrUiZoJ8Cxp-45" value="Ki: |kul|" style="shape=parallelogram;perimeter=parallelogramPerimeter;whiteSpace=wrap;html=1;fixedSize=1;" parent="1" vertex="1">
          <mxGeometry x="480" y="360" width="120" height="40" as="geometry" />
        </mxCell>
        <mxCell id="4Uo7AbZbIMrUiZoJ8Cxp-48" value="Stop" style="ellipse;whiteSpace=wrap;html=1;" parent="1" vertex="1">
          <mxGeometry x="480" y="440" width="120" height="40" as="geometry" />
        </mxCell>
        <mxCell id="4Uo7AbZbIMrUiZoJ8Cxp-50" value="Be: a,b,c" style="rounded=0;whiteSpace=wrap;html=1;" parent="1" vertex="1">
          <mxGeometry x="800" width="160" height="40" as="geometry" />
        </mxCell>
        <mxCell id="4Uo7AbZbIMrUiZoJ8Cxp-51" value="a+b&amp;gt;c és a+c&amp;gt;b és b+c&amp;gt;a" style="rounded=0;whiteSpace=wrap;html=1;" parent="1" vertex="1">
          <mxGeometry x="800" y="40" width="160" height="40" as="geometry" />
        </mxCell>
        <mxCell id="4Uo7AbZbIMrUiZoJ8Cxp-52" value="Ki:&amp;nbsp;&lt;div&gt;&quot;Nem&lt;/div&gt;&lt;div&gt;lehet-séges&quot;&lt;/div&gt;" style="rounded=0;whiteSpace=wrap;html=1;" parent="1" vertex="1">
          <mxGeometry x="920" y="80" width="40" height="160" as="geometry" />
        </mxCell>
        <mxCell id="4Uo7AbZbIMrUiZoJ8Cxp-53" value="S:=(a+b+c)/2" style="rounded=0;whiteSpace=wrap;html=1;" parent="1" vertex="1">
          <mxGeometry x="800" y="80" width="120" height="40" as="geometry" />
        </mxCell>
        <mxCell id="4Uo7AbZbIMrUiZoJ8Cxp-54" value="T:=&lt;span style=&quot;background-color: initial;&quot;&gt;sqrt(S(S-a)(S-b)(S-c))&lt;/span&gt;" style="rounded=0;whiteSpace=wrap;html=1;" parent="1" vertex="1">
          <mxGeometry x="800" y="120" width="120" height="40" as="geometry" />
        </mxCell>
        <mxCell id="4Uo7AbZbIMrUiZoJ8Cxp-55" value="K:=a+b+c" style="rounded=0;whiteSpace=wrap;html=1;" parent="1" vertex="1">
          <mxGeometry x="800" y="160" width="120" height="40" as="geometry" />
        </mxCell>
        <mxCell id="4Uo7AbZbIMrUiZoJ8Cxp-56" value="Ki: K,T" style="rounded=0;whiteSpace=wrap;html=1;" parent="1" vertex="1">
          <mxGeometry x="800" y="200" width="120" height="40" as="geometry" />
        </mxCell>
        <mxCell id="4Uo7AbZbIMrUiZoJ8Cxp-57" value="Eljárás Haromszog&lt;div&gt;Be:=a,b,c&lt;/div&gt;&lt;div&gt;Ha a+b&amp;gt;c és a+c&amp;gt;b és b+c&amp;gt;a:&lt;/div&gt;&lt;div&gt;&lt;span style=&quot;white-space: pre;&quot;&gt;&#x9;&lt;/span&gt;S:=(a+b+c)/2&lt;br&gt;&lt;/div&gt;&lt;div&gt;&lt;span style=&quot;white-space: pre;&quot;&gt;&#x9;&lt;/span&gt;T:=sqrt(S(S-a)(S-b)(S-c))&lt;br&gt;&lt;/div&gt;&lt;div&gt;&lt;span style=&quot;white-space: pre;&quot;&gt;&#x9;&lt;/span&gt;K:= a+b+c&lt;br&gt;&lt;/div&gt;&lt;div&gt;&lt;span style=&quot;white-space: pre;&quot;&gt;&#x9;&lt;/span&gt;Ki: K,T&lt;br&gt;&lt;/div&gt;&lt;div&gt;Különben:&lt;/div&gt;&lt;div&gt;&lt;span style=&quot;white-space: pre;&quot;&gt;&#x9;&lt;/span&gt;Ki: &quot;Nem lehetséges&quot;&lt;br&gt;&lt;/div&gt;&lt;div&gt;Eljárás vége&lt;/div&gt;" style="text;html=1;align=left;verticalAlign=top;whiteSpace=wrap;rounded=0;" parent="1" vertex="1">
          <mxGeometry x="960" width="200" height="240" as="geometry" />
        </mxCell>
        <mxCell id="4Uo7AbZbIMrUiZoJ8Cxp-63" style="edgeStyle=orthogonalEdgeStyle;rounded=0;orthogonalLoop=1;jettySize=auto;html=1;exitX=0.5;exitY=1;exitDx=0;exitDy=0;entryX=0.5;entryY=0;entryDx=0;entryDy=0;" parent="1" source="4Uo7AbZbIMrUiZoJ8Cxp-60" target="4Uo7AbZbIMrUiZoJ8Cxp-61" edge="1">
          <mxGeometry relative="1" as="geometry" />
        </mxCell>
        <mxCell id="4Uo7AbZbIMrUiZoJ8Cxp-60" value="Start" style="ellipse;whiteSpace=wrap;html=1;" parent="1" vertex="1">
          <mxGeometry x="800" y="240" width="120" height="40" as="geometry" />
        </mxCell>
        <mxCell id="4Uo7AbZbIMrUiZoJ8Cxp-64" style="edgeStyle=orthogonalEdgeStyle;rounded=0;orthogonalLoop=1;jettySize=auto;html=1;exitX=0.5;exitY=1;exitDx=0;exitDy=0;entryX=0.5;entryY=0;entryDx=0;entryDy=0;" parent="1" source="4Uo7AbZbIMrUiZoJ8Cxp-61" target="4Uo7AbZbIMrUiZoJ8Cxp-62" edge="1">
          <mxGeometry relative="1" as="geometry" />
        </mxCell>
        <mxCell id="4Uo7AbZbIMrUiZoJ8Cxp-61" value="Be: a,b,c" style="shape=parallelogram;perimeter=parallelogramPerimeter;whiteSpace=wrap;html=1;fixedSize=1;" parent="1" vertex="1">
          <mxGeometry x="800" y="320" width="120" height="40" as="geometry" />
        </mxCell>
        <mxCell id="4Uo7AbZbIMrUiZoJ8Cxp-66" value="H" style="edgeStyle=orthogonalEdgeStyle;rounded=0;orthogonalLoop=1;jettySize=auto;html=1;entryX=0;entryY=0.5;entryDx=0;entryDy=0;" parent="1" source="4Uo7AbZbIMrUiZoJ8Cxp-62" target="4Uo7AbZbIMrUiZoJ8Cxp-65" edge="1">
          <mxGeometry relative="1" as="geometry" />
        </mxCell>
        <mxCell id="4Uo7AbZbIMrUiZoJ8Cxp-68" value="I" style="edgeStyle=orthogonalEdgeStyle;rounded=0;orthogonalLoop=1;jettySize=auto;html=1;entryX=0.5;entryY=0;entryDx=0;entryDy=0;" parent="1" source="4Uo7AbZbIMrUiZoJ8Cxp-62" target="4Uo7AbZbIMrUiZoJ8Cxp-67" edge="1">
          <mxGeometry relative="1" as="geometry" />
        </mxCell>
        <mxCell id="4Uo7AbZbIMrUiZoJ8Cxp-62" value="a+b&amp;gt;c és a+c&amp;gt;b és b+c&amp;gt;a" style="rhombus;whiteSpace=wrap;html=1;" parent="1" vertex="1">
          <mxGeometry x="820" y="400" width="80" height="80" as="geometry" />
        </mxCell>
        <mxCell id="4Uo7AbZbIMrUiZoJ8Cxp-65" value="Ki:&lt;div&gt;&quot;Nem lehetséges&quot;&lt;br&gt;&lt;/div&gt;" style="shape=parallelogram;perimeter=parallelogramPerimeter;whiteSpace=wrap;html=1;fixedSize=1;" parent="1" vertex="1">
          <mxGeometry x="960" y="420" width="120" height="40" as="geometry" />
        </mxCell>
        <mxCell id="4Uo7AbZbIMrUiZoJ8Cxp-76" style="edgeStyle=orthogonalEdgeStyle;rounded=0;orthogonalLoop=1;jettySize=auto;html=1;exitX=0.5;exitY=1;exitDx=0;exitDy=0;entryX=0.5;entryY=0;entryDx=0;entryDy=0;" parent="1" source="4Uo7AbZbIMrUiZoJ8Cxp-67" target="4Uo7AbZbIMrUiZoJ8Cxp-69" edge="1">
          <mxGeometry relative="1" as="geometry" />
        </mxCell>
        <mxCell id="4Uo7AbZbIMrUiZoJ8Cxp-67" value="S:=(a+b+c)/2" style="rounded=0;whiteSpace=wrap;html=1;" parent="1" vertex="1">
          <mxGeometry x="800" y="520" width="120" height="40" as="geometry" />
        </mxCell>
        <mxCell id="4Uo7AbZbIMrUiZoJ8Cxp-75" style="edgeStyle=orthogonalEdgeStyle;rounded=0;orthogonalLoop=1;jettySize=auto;html=1;exitX=0.5;exitY=1;exitDx=0;exitDy=0;entryX=0.5;entryY=0;entryDx=0;entryDy=0;" parent="1" source="4Uo7AbZbIMrUiZoJ8Cxp-69" target="4Uo7AbZbIMrUiZoJ8Cxp-70" edge="1">
          <mxGeometry relative="1" as="geometry" />
        </mxCell>
        <mxCell id="4Uo7AbZbIMrUiZoJ8Cxp-69" value="T:= sqrt(S(S-a)(S-b)(S-c)&lt;span style=&quot;background-color: initial;&quot;&gt;)&lt;/span&gt;" style="rounded=0;whiteSpace=wrap;html=1;" parent="1" vertex="1">
          <mxGeometry x="800" y="600" width="120" height="40" as="geometry" />
        </mxCell>
        <mxCell id="4Uo7AbZbIMrUiZoJ8Cxp-74" style="edgeStyle=orthogonalEdgeStyle;rounded=0;orthogonalLoop=1;jettySize=auto;html=1;exitX=1;exitY=0.5;exitDx=0;exitDy=0;entryX=0;entryY=0.5;entryDx=0;entryDy=0;" parent="1" source="4Uo7AbZbIMrUiZoJ8Cxp-70" target="4Uo7AbZbIMrUiZoJ8Cxp-72" edge="1">
          <mxGeometry relative="1" as="geometry" />
        </mxCell>
        <mxCell id="4Uo7AbZbIMrUiZoJ8Cxp-70" value="K:=a+b+c" style="rounded=0;whiteSpace=wrap;html=1;" parent="1" vertex="1">
          <mxGeometry x="800" y="680" width="120" height="40" as="geometry" />
        </mxCell>
        <mxCell id="4Uo7AbZbIMrUiZoJ8Cxp-71" value="Stop" style="ellipse;whiteSpace=wrap;html=1;" parent="1" vertex="1">
          <mxGeometry x="960" y="600" width="120" height="40" as="geometry" />
        </mxCell>
        <mxCell id="4Uo7AbZbIMrUiZoJ8Cxp-73" style="edgeStyle=orthogonalEdgeStyle;rounded=0;orthogonalLoop=1;jettySize=auto;html=1;entryX=0.5;entryY=1;entryDx=0;entryDy=0;" parent="1" source="4Uo7AbZbIMrUiZoJ8Cxp-72" target="4Uo7AbZbIMrUiZoJ8Cxp-71" edge="1">
          <mxGeometry relative="1" as="geometry" />
        </mxCell>
        <mxCell id="4Uo7AbZbIMrUiZoJ8Cxp-72" value="Ki: K,T" style="shape=parallelogram;perimeter=parallelogramPerimeter;whiteSpace=wrap;html=1;fixedSize=1;" parent="1" vertex="1">
          <mxGeometry x="960" y="680" width="120" height="40" as="geometry" />
        </mxCell>
      </root>
    </mxGraphModel>
  </diagram>
</mxfile>
